Misschien ken je hem als "Die jongen met die dwarsfluit" of als "Die human beatbox" of ken je hem als tv-presentator (van Het Klokhuis en af en toe VARA Laat) of heb je zijn eerste show Extreem! en tweede show "Mix" gezien op tv of DVD. Misschien ken je dit multitalent wel helemaal niet, dan wordt het zeker tijd dat je zijn derde cabaretshow gaat zien.
"Schaap" is een programma dat gaat over de wolf in Klaas. Hij zet dit thema in een flitsende show met behulp standup, types, improvisaties en muzi... 

General
Format                           : AVI
Format/Info                      : Audio Video Interleave
File size                        : 618 MiB
Duration                         : 1h 12mn
Overall bit rate                 : 1 198 Kbps

Video
ID                               : 0
Format                           : MPEG-4 Visual
Format profile                   : Simple@L3
Format settings, BVOP            : No
Format settings, QPel            : No
Format settings, GMC             : No warppoints
Format settings, Matrix          : Default (H.263)
Codec ID                         : XVID
Codec ID/Hint                    : XviD
Duration                         : 1h 12mn
Bit rate                         : 1 000 Kbps
Width                            : 672 pixels
Height                           : 368 pixels
Display aspect ratio             : 16:9
Frame rate                       : 30.000 fps
Color space                      : YUV
Chroma subsampling               : 4:2:0
Bit depth                        : 8 bits
Scan type                        : Progressive
Bits/(Pixel*Frame)               : 0.135
Stream size                      : 515 MiB (83%)
Writing library                  : XviD 1.1.2 (UTC 2006-11-01)

Audio
ID                               : 1
Format                           : AC-3
Format/Info                      : Audio Coding 3
Mode extension                   : CM (complete main)
Codec ID                         : 2000
Duration                         : 1h 12mn
Bit rate mode                    : Constant
Bit rate                         : 192 Kbps
Channel(s)                       : 2 channels
Channel positions                : Front: L R
Sampling rate                    : 48.0 KHz
Bit depth                        : 16 bits
Stream size                      : 99.0 MiB (16%)
Alignment                        : Split accross interleaves
Interleave, duration             : 500 ms (15.00 video frames)
Interleave, preload duration     : 500 ms

Leave your comment about Audio/Video/Movie